<svg xmlns="http://www.w3.org/2000/svg" width="340" height="338.367" viewBox="0 0 340 338.367"><defs><style>.a{fill:#e6e6e6;}.b{fill:#fff;}.c{fill:#f2f2f2;}.d{fill:#ccc;}.e{fill:#ffb8b8;}.f{fill:#2f2e41;}.g{fill:#cbd3d6;}.h{opacity:0.2;}</style></defs><g transform="translate(0)"><path class="a" d="M650.131,299.615H594.326a8.033,8.033,0,0,1-6.344-3.075h0a8.133,8.133,0,0,1-1.523-6.976,141.107,141.107,0,0,0,0-65.537,8.135,8.135,0,0,1,1.523-6.975,8.032,8.032,0,0,1,6.345-3.075h55.805a8.134,8.134,0,0,1,8.005,6.827,236.515,236.515,0,0,1,0,71.983,8.134,8.134,0,0,1-8,6.827Z" transform="translate(-425.865 -209.969)"/><path class="b" d="M596.128,219.978a3.858,3.858,0,0,0-3.047,1.475,3.96,3.96,0,0,0-.737,3.4,145.323,145.323,0,0,1,0,67.5,3.958,3.958,0,0,0,.737,3.4h0a3.857,3.857,0,0,0,3.047,1.476h55.805a3.907,3.907,0,0,0,3.855-3.266,232.333,232.333,0,0,0,0-70.707,3.907,3.907,0,0,0-3.855-3.266Z" transform="translate(-427.667 -211.77)"/><path class="a" d="M645.779,244.523H616.495a4.2,4.2,0,0,1-4.2-4.2v-1.641a4.2,4.2,0,0,1,4.2-4.2h29.284a4.2,4.2,0,0,1,4.2,4.2v1.641a4.2,4.2,0,0,1-4.2,4.2Z" transform="translate(-433.691 -216.125)"/><path class="a" d="M645.779,274.148H616.5a4.2,4.2,0,0,1-4.2-4.2v-1.641a4.2,4.2,0,0,1,4.2-4.2h29.284a4.2,4.2,0,0,1,4.2,4.2v1.641a4.2,4.2,0,0,1-4.2,4.2Z" transform="translate(-433.691 -225.018)"/><path class="a" d="M645.779,303.774H616.495a4.2,4.2,0,0,1-4.2-4.2v-1.641a4.2,4.2,0,0,1,4.2-4.2h29.284a4.2,4.2,0,0,1,4.2,4.2v1.641A4.2,4.2,0,0,1,645.779,303.774Z" transform="translate(-433.691 -233.91)"/><path class="a" d="M800.131,375.615H744.326a8.033,8.033,0,0,1-6.344-3.075h0a8.133,8.133,0,0,1-1.523-6.976,141.107,141.107,0,0,0,0-65.537,8.135,8.135,0,0,1,1.523-6.975,8.032,8.032,0,0,1,6.344-3.075h55.805a8.135,8.135,0,0,1,8.005,6.827,236.517,236.517,0,0,1,0,71.983A8.134,8.134,0,0,1,800.131,375.615Z" transform="translate(-470.891 -232.782)"/><path class="b" d="M746.128,295.978a3.858,3.858,0,0,0-3.047,1.476,3.961,3.961,0,0,0-.737,3.4,145.324,145.324,0,0,1,0,67.5,3.958,3.958,0,0,0,.737,3.4h0a3.857,3.857,0,0,0,3.047,1.476h55.805a3.907,3.907,0,0,0,3.855-3.266,232.33,232.33,0,0,0,0-70.707,3.907,3.907,0,0,0-3.855-3.266Z" transform="translate(-472.693 -234.583)"/><path class="c" d="M640.981,461.815H585.176a8.381,8.381,0,0,1-6.619-3.208,8.481,8.481,0,0,1-1.589-7.274,140.756,140.756,0,0,0,0-65.373,8.482,8.482,0,0,1,1.589-7.274,8.381,8.381,0,0,1,6.619-3.208h55.805a8.487,8.487,0,0,1,8.351,7.124,236.859,236.859,0,0,1,0,72.09A8.487,8.487,0,0,1,640.981,461.815Z" transform="translate(-423.014 -258.447)"/><path class="a" d="M795.779,335.523H766.495a4.2,4.2,0,0,1-4.2-4.2v-1.641a4.2,4.2,0,0,1,4.2-4.2h29.284a4.2,4.2,0,0,1,4.2,4.2v1.641A4.2,4.2,0,0,1,795.779,335.523Z" transform="translate(-478.717 -243.441)"/><path class="a" d="M795.779,365.148H766.495a4.2,4.2,0,0,1-4.2-4.2v-1.641a4.2,4.2,0,0,1,4.2-4.2h29.284a4.2,4.2,0,0,1,4.2,4.2v1.641A4.2,4.2,0,0,1,795.779,365.148Z" transform="translate(-478.717 -252.333)"/><circle class="b" cx="16.096" cy="16.096" r="16.096" transform="translate(174.125 143.815)"/><path class="a" d="M632.39,430.448h-5.6v-5.6a2.1,2.1,0,0,0-4.2,0v5.6h-5.6a2.1,2.1,0,0,0,0,4.2h5.6v5.6a2.1,2.1,0,0,0,4.2,0v-5.6h5.6a2.1,2.1,0,1,0,0-4.2Z" transform="translate(-434.471 -272.637)"/><path class="d" d="M643.936,220.147H614.543A3.153,3.153,0,0,1,611.394,217v-5.6a3.153,3.153,0,0,1,3.149-3.149h29.393a3.153,3.153,0,0,1,3.149,3.149V217a3.153,3.153,0,0,1-3.149,3.149Z" transform="translate(-433.42 -208.25)"/><path class="d" d="M795.936,297.147H766.543A3.153,3.153,0,0,1,763.394,294v-5.6a3.153,3.153,0,0,1,3.149-3.149h29.393a3.153,3.153,0,0,1,3.149,3.149V294a3.153,3.153,0,0,1-3.149,3.149Z" transform="translate(-479.046 -231.363)"/><path class="e" d="M88.6,456.866h8.58l2.682-33.093H88.594Z" transform="translate(-26.593 -127.205)"/><path class="f" d="M442.552,675.308h16.9a10.768,10.768,0,0,1,10.768,10.768v.35H442.553Z" transform="translate(-382.738 -348.447)"/><path class="e" d="M22.6,456.866h8.58l4.082-33.093H22.594Z" transform="translate(-6.782 -127.205)"/><path class="f" d="M376.552,675.308h16.9a10.768,10.768,0,0,1,10.768,10.768v.35H376.553Z" transform="translate(-362.927 -348.447)"/><path class="f" d="M378.88,610.021a3.486,3.486,0,0,1-2.361-.922h0a3.471,3.471,0,0,1-1.131-2.475L371.947,483.3,420.8,495.518l15.074,45.221a49.311,49.311,0,0,1,2.481,18.073l-1.872,43.835a3.5,3.5,0,0,1-3.5,3.33H424.8a3.516,3.516,0,0,1-3.467-3.03l-5.857-48.387a26.47,26.47,0,0,0-3.871-10.612L400.075,525.7a.7.7,0,0,0-1.286.287l-9.045,80.542a3.494,3.494,0,0,1-3.28,3.077l-7.385.411C379.013,610.018,378.947,610.021,378.88,610.021Z" transform="translate(-361.545 -290.813)"/><path class="e" d="M17.188,0A17.188,17.188,0,1,1,0,17.188,17.188,17.188,0,0,1,17.188,0Z" transform="translate(33.939 78.272)"/><path class="g" d="M419.128,467.537a3.551,3.551,0,0,1-.877-.111h0L369.777,455a3.5,3.5,0,0,1-2.563-4.07l11.132-59.969a21.844,21.844,0,0,1,12.772-15.774,21.074,21.074,0,0,1,19.781,1.452c.679.423,1.362.885,2.031,1.372a21.667,21.667,0,0,1,8.8,17.166l.885,68.813a3.5,3.5,0,0,1-3.491,3.549Z" transform="translate(-360.104 -257.818)"/><path class="e" d="M377.51,493.791a7.037,7.037,0,0,1,2.949-10.38L378.3,458.5l11.425,6.192.3,22.71a7.075,7.075,0,0,1-12.514,6.392Z" transform="translate(-362.85 -283.367)"/><path class="g" d="M379.424,455.3a3.855,3.855,0,0,1-3.735-2.911l-5.615-22.313a33.151,33.151,0,0,1,2.632-23.189l11.763-23.012a10.876,10.876,0,0,1,13.162-7.711,10.746,10.746,0,0,1,6.631,4.969,10.894,10.894,0,0,1,1.158,8.337l-16.745,37.445.2,22.419a3.862,3.862,0,0,1-2.508,3.642l-5.6,2.081a3.836,3.836,0,0,1-1.337.241Z" transform="translate(-360.681 -258.554)"/><path class="e" d="M487.149,483.72a7.037,7.037,0,0,1-5.944-9.006l-20.29-14.619,12.147-4.62,17.406,14.591a7.075,7.075,0,0,1-3.318,13.655Z" transform="translate(-388.25 -282.46)"/><path class="g" d="M461.861,451.106a3.865,3.865,0,0,1-1.723-.407l-20.574-10.3A33.159,33.159,0,0,1,423.7,423.278l-9.768-23.928a10.878,10.878,0,0,1,2.742-15.007,10.744,10.744,0,0,1,8.111-1.78,10.9,10.9,0,0,1,7.055,4.557L449.3,424.239l17.122,14.474a3.861,3.861,0,0,1,1.124,4.277l-2.078,5.6a3.85,3.85,0,0,1-3.609,2.511Z" transform="translate(-373.585 -260.521)"/><path class="f" d="M418.348,353.177c.913.4,2.783-6.877,1.946-8.333-1.246-2.164-1.172-2.149-2-3.581a4.152,4.152,0,0,1,.059-4.652c1.071-1.26,3.55-1.093,4.038.487-.314-3,2.654-5.413,5.594-6.091s6.041-.257,9-.86c3.431-.7,7-3.576,5.632-7.349a5.314,5.314,0,0,0-1.036-1.7c-1.582-1.778-3.794-2.538-5.957-3.272-4.5-1.527-9.123-3.074-13.872-2.905a20.153,20.153,0,0,0-17.808,13.023,18.3,18.3,0,0,0-.758,2.817,18.891,18.891,0,0,0,11.726,20.748Z" transform="translate(-370.83 -240.265)"/><path class="h" d="M38.9,252.931l.39-23.045L51.5,205.343l-9.8,25.194Z" transform="translate(-11.677 -61.638)"/><path class="a" d="M529.917,520.86l-51.534-21.411a8.033,8.033,0,0,1-4.679-5.274h0a8.133,8.133,0,0,1,1.27-7.026,141.108,141.108,0,0,0,25.145-60.521,8.135,8.135,0,0,1,4.083-5.857,8.032,8.032,0,0,1,7.039-.405l51.534,21.412a8.134,8.134,0,0,1,4.773,9.376,236.516,236.516,0,0,1-27.619,66.474A8.134,8.134,0,0,1,529.917,520.86Z" transform="translate(-391.997 -271.734)"/><path class="b" d="M511.432,426.045a3.858,3.858,0,0,0-3.38.193,3.961,3.961,0,0,0-1.984,2.854,145.324,145.324,0,0,1-25.9,62.33,3.958,3.958,0,0,0-.622,3.419h0a3.857,3.857,0,0,0,2.248,2.532l51.534,21.412a3.907,3.907,0,0,0,4.813-1.537,232.334,232.334,0,0,0,27.129-65.3,3.907,3.907,0,0,0-2.307-4.5Z" transform="translate(-393.799 -273.536)"/><path class="g" d="M551.671,485.348l-27.043-11.236a4.2,4.2,0,0,1-2.266-5.488l.63-1.515a4.2,4.2,0,0,1,5.488-2.266l27.043,11.236a4.2,4.2,0,0,1,2.266,5.488l-.63,1.515a4.2,4.2,0,0,1-5.488,2.266Z" transform="translate(-406.599 -285.175)"/><path class="g" d="M540.3,512.707l-27.043-11.236a4.2,4.2,0,0,1-2.266-5.488l.63-1.515a4.2,4.2,0,0,1,5.488-2.266l27.043,11.236a4.2,4.2,0,0,1,2.266,5.488l-.63,1.515A4.2,4.2,0,0,1,540.3,512.707Z" transform="translate(-403.187 -293.388)"/><path class="d" d="M566.825,446.178a3.142,3.142,0,0,1-1.181-.231l-27.25-11.017a3.153,3.153,0,0,1-1.739-4.1l2.1-5.191a3.149,3.149,0,0,1,4.1-1.739l27.25,11.017a3.153,3.153,0,0,1,1.739,4.1l-2.1,5.191A3.157,3.157,0,0,1,566.825,446.178Z" transform="translate(-410.917 -272.913)"/><path class="d" d="M455.759,691.15H357.783a.7.7,0,0,1,0-1.4h97.976a.7.7,0,0,1,0,1.4Z" transform="translate(-357.083 -352.783)"/></g></svg>