<svg xmlns="http://www.w3.org/2000/svg" width="308.867" height="157.365" viewBox="0 0 308.867 157.365"><defs><style>.a{fill:#e21a43;}.b{fill:#17100d;}.c{fill:#2f8fe3;}.d{fill:#ff7a21;}</style></defs><g transform="translate(-243.861 -174.469)"><g transform="translate(243.861 218.965)"><path class="a" d="M289.663,216.251h13.292L284.391,271.2h-40.53V216.251h22.315l-.1,10.394H257.1l.068,33.7,17.256.091Z" transform="translate(-243.861 -216.251)"/><path class="b" d="M371.955,216.669H384.5v54.5H370.914l-17.82-31.781v31.781H340.545V216.818h13.663l17.746,31.706Z" transform="translate(-237.58 -216.224)"/><path class="b" d="M399.251,216.465a26.732,26.732,0,0,1,10.21,2.6,27.837,27.837,0,0,1,13.885,14.628,26.952,26.952,0,0,1,2.043,10.47,26.358,26.358,0,0,1-2.005,10.284,26.935,26.935,0,0,1-5.531,8.428,27.358,27.358,0,0,1-8.28,5.829,27.963,27.963,0,0,1-10.321,2.488H386.7v-54.8h12.548Zm0,42.1a15.7,15.7,0,0,0,5.383-1.523,15.3,15.3,0,0,0,4.307-3.118,14.1,14.1,0,0,0,3.9-9.765,14.956,14.956,0,0,0-1.04-5.531,15.2,15.2,0,0,0-2.9-4.678,15.74,15.74,0,0,0-4.308-3.341,14.443,14.443,0,0,0-5.345-1.6Z" transform="translate(-234.582 -216.242)"/><path class="b" d="M438.3,271.176H425.748V216.6H438.3Z" transform="translate(-232.046 -216.228)"/><path class="b" d="M475.912,216.669H488.46v54.5H474.872l-17.82-31.781v31.781H444.5V216.818h13.663l17.747,31.706Z" transform="translate(-230.827 -216.224)"/><path class="b" d="M536.85,240.662v30.519H524.228v-1.337a22.972,22.972,0,0,1-4.27,1.077,28.8,28.8,0,0,1-4.344.334,27.747,27.747,0,0,1-10.322-2.005,26.592,26.592,0,0,1-9.057-6.015,26.232,26.232,0,0,1-5.979-9.021,27.927,27.927,0,0,1-1.967-10.284,28.225,28.225,0,0,1,1.967-10.322,26.147,26.147,0,0,1,5.979-9.059,26.574,26.574,0,0,1,9.057-6.014,27.566,27.566,0,0,1,20.643,0,26.6,26.6,0,0,1,9.059,6.014l-8.911,8.911a14.213,14.213,0,0,0-4.9-3.23,14.939,14.939,0,0,0-11.137,0,14.193,14.193,0,0,0-4.9,3.23,14.754,14.754,0,0,0,0,20.939,14.385,14.385,0,0,0,4.344,3.007,14.709,14.709,0,0,0,4.975,1.262,15.387,15.387,0,0,0,5.086-.482,14.074,14.074,0,0,0,4.678-2.228v-2.746H513.312v-12.55Z" transform="translate(-227.983 -216.233)"/></g><g transform="translate(243.861 278.905)"><path class="b" d="M282.622,272.6h12.512l3.093,52.856H286.074l-1.294-21.574-7.335,21.574H265.291l-7.767-22.437-1.439,22.437H243.861l3.38-52.856h12.512l11.578,33.08Z" transform="translate(-243.861 -272.531)"/><path class="b" d="M328.773,325.455l-2.086-6.4h-16.61l-2.159,6.4H295.046l17.978-52.785h11.508l17.043,52.785ZM314.247,306.9H322.8l-4.17-12.8Z" transform="translate(-240.536 -272.526)"/><path class="b" d="M365.129,325.392a27,27,0,0,1-9.961-1.906,25.394,25.394,0,0,1-8.738-5.789,26.777,26.777,0,0,1-5.717-8.594,26.354,26.354,0,0,1,5.717-28.8,25.78,25.78,0,0,1,8.773-5.825,26.792,26.792,0,0,1,9.961-1.941,26.509,26.509,0,0,1,9.923,1.941,25.859,25.859,0,0,1,8.738,5.825l-8.557,8.558a13.8,13.8,0,0,0-4.747-3.128,14.669,14.669,0,0,0-5.393-1.044,14.378,14.378,0,0,0-5.358,1.044,13.843,13.843,0,0,0-4.711,3.128,14.979,14.979,0,0,0-3.092,4.674,14.057,14.057,0,0,0-1.08,5.465,13.794,13.794,0,0,0,1.08,5.43,15.086,15.086,0,0,0,3.092,4.638,13.832,13.832,0,0,0,4.711,3.129,14.377,14.377,0,0,0,5.358,1.043,14.668,14.668,0,0,0,5.393-1.043,13.788,13.788,0,0,0,4.747-3.129l8.557,8.629a25.492,25.492,0,0,1-8.7,5.789A26.926,26.926,0,0,1,365.129,325.392Z" transform="translate(-237.698 -272.535)"/><path class="b" d="M410.7,272.67h12.153v52.785H410.7v-19.92H395.457v19.92H383.3V272.67h12.153v20.711H410.7Z" transform="translate(-234.803 -272.526)"/><path class="c" d="M439.2,272.535h12.153v52.929H439.2V291.809l-3.6,4.458-9.422-7.694Z" transform="translate(-232.017 -272.535)"/><path class="b" d="M486.99,272.67h12.153v52.785H485.982l-17.258-30.779v30.779H456.57V272.814H469.8l17.187,30.707Z" transform="translate(-230.043 -272.526)"/><path class="b" d="M535.954,284.823H514.236v7.983h17.619V304.96H514.236V313.3h21.718v12.153H502.083V272.742l33.871-.072Z" transform="translate(-227.087 -272.526)"/></g><path class="b" d="M339,228.9H316.394v8.31h18.341v12.652H316.394v8.684H339V271.2H303.743V216.326L339,216.251Z" transform="translate(3.89 2.714)"/><g transform="translate(270.196 174.469)"><path class="d" d="M268.59,174.469h16.622v9.062h-7.56v46.558H268.59V183.531" transform="translate(-268.59 -174.469)"/><path class="b" d="M307.4,174.621h9.062v39.356H307.4V199.124H296.029v14.853h-9.062V174.621h9.062v15.442H307.4Z" transform="translate(-267.396 -174.459)"/><path class="b" d="M343.637,183.682H327.445v5.952h13.137V198.7H327.445v6.219h16.193v9.062H318.384v-39.3l25.253-.053Z" transform="translate(-265.355 -174.459)"/></g></g></svg>