<svg xmlns="http://www.w3.org/2000/svg" width="44.059" height="64.103" viewBox="0 0 44.059 64.103"><defs><style>.a{fill:#5d6b75;}</style></defs><path class="a" d="M23.888,0C13.895,0,7.422,4.094,2.34,11.4a3.008,3.008,0,0,0,.648,4.116l5.4,4.1a3,3,0,0,0,4.163-.519c3.136-3.929,5.463-6.191,10.361-6.191,3.852,0,8.616,2.479,8.616,6.214,0,2.824-2.331,4.274-6.134,6.406C20.961,28,15.092,31.1,15.092,38.839v1.225a3,3,0,0,0,3,3H27.17a3,3,0,0,0,3-3v-.723c0-5.366,15.684-5.59,15.684-20.111C45.859,8.3,34.515,0,23.888,0ZM22.634,46.758a8.673,8.673,0,1,0,8.673,8.673A8.683,8.683,0,0,0,22.634,46.758Z" transform="translate(-1.8)"/></svg>